<svg width="52" height="28" viewBox="0 0 52 28" fill="none" xmlns="http://www.w3.org/2000/svg">
<path d="M47.8662 1.30124L26 22.6162L4.13375 1.30124C3.74307 0.919639 3.21862 0.706004 2.6725 0.706004C2.12638 0.706004 1.60193 0.919639 1.21125 1.30124C1.02208 1.48658 0.871801 1.7078 0.769207 1.95196C0.666614 2.19611 0.61377 2.45828 0.61377 2.72311C0.61377 2.98794 0.666614 3.25011 0.769207 3.49426C0.871801 3.73842 1.02208 3.95964 1.21125 4.14498L24.4731 26.825C24.8816 27.2232 25.4295 27.446 26 27.446C26.5705 27.446 27.1184 27.2232 27.5269 26.825L50.7887 4.14936C50.9793 3.96388 51.1307 3.74211 51.2341 3.49715C51.3374 3.25219 51.3907 2.989 51.3907 2.72311C51.3907 2.45723 51.3374 2.19403 51.2341 1.94907C51.1307 1.70411 50.9793 1.48234 50.7887 1.29686C50.3981 0.915262 49.8736 0.70163 49.3275 0.70163C48.7814 0.70163 48.2569 0.915262 47.8662 1.29686V1.30124Z" fill="#1B1B1B"/>
</svg>
