<svg width="465" height="150" viewBox="0 0 465 150" fill="none" xmlns="http://www.w3.org/2000/svg">
<rect width="194" height="150" rx="15" fill="#F0F0F0"/>
<circle cx="80" cy="75" r="34" stroke="#238A4C" stroke-width="2"/>
<circle cx="114" cy="75" r="34" stroke="#238A4C" stroke-width="2"/>
<line x1="88.9979" y1="50.8847" x2="113.672" y2="73.2592" stroke="#238A4C" stroke-width="2"/>
<line x1="93.6668" y1="48.2548" x2="112.667" y2="65.2548" stroke="#238A4C" stroke-width="2"/>
<line x1="86.6794" y1="55.2662" x2="113.679" y2="80.2662" stroke="#238A4C" stroke-width="2"/>
<line x1="83.6814" y1="59.2681" x2="112.681" y2="86.2681" stroke="#238A4C" stroke-width="2"/>
<line x1="81.6805" y1="64.2672" x2="109.68" y2="90.2672" stroke="#238A4C" stroke-width="2"/>
<line x1="80.6794" y1="70.2662" x2="107.679" y2="95.2662" stroke="#238A4C" stroke-width="2"/>
<line x1="79.6771" y1="76.2641" x2="104.677" y2="99.2641" stroke="#238A4C" stroke-width="2"/>
<path d="M81 83.5L100.829 102.113" stroke="#238A4C" stroke-width="2"/>
<path d="M277.376 56.884L269.568 86.004C269.397 86.772 269.013 87.3907 268.416 87.86C267.819 88.2867 267.115 88.5 266.304 88.5H259.136C258.283 88.5 257.536 88.244 256.896 87.732C256.256 87.1773 255.872 86.4733 255.744 85.62L252.288 67.828C252.16 66.932 252.053 66.0573 251.968 65.204C251.883 64.308 251.755 63.412 251.584 62.516H250.816C250.688 63.412 250.56 64.308 250.432 65.204C250.304 66.0573 250.176 66.932 250.048 67.828L246.592 85.62C246.464 86.4733 246.08 87.1773 245.44 87.732C244.8 88.244 244.053 88.5 243.2 88.5H236.096C235.285 88.5 234.581 88.2867 233.984 87.86C233.387 87.3907 233.003 86.772 232.832 86.004L225.024 56.884H234.56L238.912 77.364C239.083 78.2173 239.232 79.092 239.36 79.988C239.488 80.8413 239.595 81.6947 239.68 82.548H240.512C240.64 81.6947 240.768 80.8413 240.896 79.988C241.067 79.092 241.216 78.2173 241.344 77.364L244.8 59.764C244.928 58.9107 245.291 58.228 245.888 57.716C246.485 57.1613 247.232 56.884 248.128 56.884H254.272C255.125 56.884 255.851 57.1613 256.448 57.716C257.088 58.228 257.472 58.932 257.6 59.828L260.992 77.364C261.12 78.2173 261.269 79.0707 261.44 79.924C261.611 80.7773 261.76 81.652 261.888 82.548H262.656C262.827 81.652 262.955 80.7987 263.04 79.988C263.168 79.1347 263.317 78.26 263.488 77.364L267.84 56.884H277.376ZM298.607 56.052C301.252 56.052 303.492 56.4147 305.327 57.14C307.161 57.8227 308.548 59.0173 309.487 60.724C310.468 62.388 310.958 64.692 310.958 67.636V88.5H303.407L302.063 81.652L301.423 80.692V67.572C301.423 66.0787 301.06 64.9907 300.335 64.308C299.652 63.6253 298.329 63.284 296.367 63.284C294.745 63.284 292.719 63.348 290.287 63.476C287.855 63.5613 285.359 63.6893 282.799 63.86L281.903 57.588C283.439 57.2893 285.209 57.0333 287.215 56.82C289.22 56.6067 291.225 56.436 293.231 56.308C295.236 56.1373 297.028 56.052 298.607 56.052ZM307.055 69.044L306.991 74.356L292.911 74.42C291.759 74.42 290.927 74.6973 290.415 75.252C289.945 75.8067 289.711 76.5533 289.711 77.492V79.028C289.711 80.0947 290.009 80.9267 290.607 81.524C291.204 82.0787 292.164 82.356 293.487 82.356C294.596 82.356 295.791 82.1213 297.071 81.652C298.393 81.1827 299.695 80.5213 300.975 79.668C302.255 78.8147 303.385 77.812 304.367 76.66V80.756C303.983 81.396 303.407 82.2067 302.639 83.188C301.913 84.1267 300.975 85.0653 299.823 86.004C298.671 86.9 297.327 87.668 295.791 88.308C294.255 88.948 292.505 89.268 290.543 89.268C288.623 89.268 286.895 88.9267 285.359 88.244C283.823 87.5613 282.607 86.5587 281.711 85.236C280.815 83.9133 280.367 82.2707 280.367 80.308V77.044C280.367 74.5267 281.22 72.564 282.927 71.156C284.633 69.748 286.98 69.044 289.967 69.044H307.055ZM327.939 43.7L327.875 78.388C327.875 79.4547 328.195 80.2653 328.835 80.82C329.475 81.332 330.413 81.588 331.651 81.588H334.211L335.299 87.988C334.787 88.244 334.061 88.4573 333.123 88.628C332.184 88.8413 331.224 88.9907 330.243 89.076C329.261 89.204 328.429 89.268 327.747 89.268C324.888 89.268 322.627 88.5213 320.963 87.028C319.299 85.5347 318.467 83.444 318.467 80.756V43.7H327.939ZM369.995 56.884L361.739 67.892C361.355 68.4893 360.864 69.0653 360.267 69.62C359.669 70.1747 359.179 70.58 358.795 70.836V71.092C359.179 71.3053 359.669 71.7533 360.267 72.436C360.864 73.1187 361.355 73.8013 361.739 74.484L371.083 88.5H360.523L349.707 70.708L359.435 56.884H369.995ZM348.875 43.7L348.939 62.196C348.939 63.6893 348.853 65.14 348.683 66.548C348.512 67.956 348.256 69.3427 347.915 70.708C348.213 72.0307 348.448 73.396 348.619 74.804C348.789 76.1693 348.875 77.4493 348.875 78.644V88.5H339.403V43.7H348.875ZM353.291 68.02V73.78H345.931V68.02H353.291ZM389.005 56.052C392.973 56.052 396.152 56.6067 398.541 57.716C400.93 58.7827 402.637 60.532 403.661 62.964C404.728 65.396 405.261 68.66 405.261 72.756C405.261 76.7667 404.728 79.988 403.661 82.42C402.637 84.852 400.93 86.6013 398.541 87.668C396.152 88.7347 392.973 89.268 389.005 89.268C385.08 89.268 381.901 88.7347 379.469 87.668C377.08 86.6013 375.352 84.852 374.285 82.42C373.218 79.988 372.685 76.7667 372.685 72.756C372.685 68.66 373.218 65.396 374.285 62.964C375.352 60.532 377.08 58.7827 379.469 57.716C381.901 56.6067 385.08 56.052 389.005 56.052ZM389.005 62.964C387.384 62.964 386.104 63.2413 385.165 63.796C384.226 64.3507 383.565 65.332 383.181 66.74C382.797 68.148 382.605 70.1533 382.605 72.756C382.605 75.316 382.797 77.3 383.181 78.708C383.565 80.116 384.226 81.0973 385.165 81.652C386.104 82.164 387.384 82.42 389.005 82.42C390.626 82.42 391.906 82.164 392.845 81.652C393.784 81.0973 394.445 80.116 394.829 78.708C395.213 77.3 395.405 75.316 395.405 72.756C395.405 70.1533 395.213 68.148 394.829 66.74C394.445 65.332 393.784 64.3507 392.845 63.796C391.906 63.2413 390.626 62.964 389.005 62.964ZM451.779 56.052C454.638 56.052 456.814 56.7987 458.307 58.292C459.8 59.7853 460.547 61.9613 460.547 64.82V88.5H451.139V67.764C451.139 66.4413 450.883 65.5027 450.371 64.948C449.859 64.3507 448.963 64.052 447.683 64.052C446.915 64.052 446.19 64.1587 445.507 64.372C444.824 64.5853 444.035 64.9267 443.139 65.396C442.243 65.8653 441.155 66.5053 439.875 67.316L439.363 62.068C441.411 60.0627 443.416 58.5693 445.379 57.588C447.384 56.564 449.518 56.052 451.779 56.052ZM419.267 56.884L420.227 63.156L421.187 63.988V88.5H411.715V56.884H419.267ZM432.067 56.052C434.883 56.052 437.016 56.7987 438.467 58.292C439.96 59.7427 440.707 61.9187 440.707 64.82V88.5H431.619V67.764C431.619 66.3987 431.32 65.4387 430.723 64.884C430.168 64.3293 429.294 64.052 428.099 64.052C427.374 64.052 426.648 64.1587 425.923 64.372C425.24 64.5427 424.43 64.8627 423.491 65.332C422.595 65.8013 421.486 66.4627 420.163 67.316L419.587 62.068C421.678 60.0627 423.704 58.5693 425.667 57.588C427.63 56.564 429.763 56.052 432.067 56.052Z" fill="#F0F0F0"/>
<path d="M242.34 107.7L239.54 120.98C239.5 121.127 239.42 121.253 239.3 121.36C239.18 121.453 239.027 121.5 238.84 121.5H236.84C236.667 121.5 236.513 121.453 236.38 121.36C236.26 121.253 236.187 121.12 236.16 120.96L234 110.58C233.947 110.313 233.893 110.053 233.84 109.8C233.787 109.533 233.733 109.273 233.68 109.02H233.26C233.207 109.273 233.153 109.533 233.1 109.8C233.06 110.067 233.013 110.327 232.96 110.58L230.82 120.96C230.78 121.12 230.693 121.253 230.56 121.36C230.44 121.453 230.293 121.5 230.12 121.5H228.1C227.927 121.5 227.773 121.453 227.64 121.36C227.52 121.253 227.447 121.127 227.42 120.98L224.62 107.7H226.48L228.64 118.46C228.693 118.713 228.74 118.987 228.78 119.28C228.82 119.56 228.867 119.853 228.92 120.16H229.38C229.433 119.853 229.487 119.56 229.54 119.28C229.593 119 229.647 118.727 229.7 118.46L231.84 108.28C231.867 108.107 231.94 107.967 232.06 107.86C232.193 107.753 232.347 107.7 232.52 107.7H234.44C234.613 107.7 234.76 107.753 234.88 107.86C235 107.967 235.08 108.107 235.12 108.28L237.26 118.46C237.327 118.753 237.38 119.04 237.42 119.32C237.473 119.6 237.513 119.88 237.54 120.16H238.04C238.08 119.88 238.12 119.6 238.16 119.32C238.2 119.027 238.247 118.747 238.3 118.48L240.48 107.7H242.34ZM250.656 107.7C250.816 107.7 250.956 107.747 251.076 107.84C251.196 107.92 251.276 108.033 251.316 108.18L255.756 121.5H253.936L250.356 110.18C250.302 109.993 250.242 109.807 250.176 109.62C250.122 109.42 250.069 109.233 250.016 109.06H249.456C249.402 109.233 249.349 109.42 249.296 109.62C249.242 109.807 249.182 109.993 249.116 110.18L245.536 121.5H243.716L248.156 108.18C248.196 108.033 248.276 107.92 248.396 107.84C248.516 107.747 248.656 107.7 248.816 107.7H250.656ZM253.216 115.66V117.18H246.216V115.66H253.216ZM260.397 107.7V118.7C260.397 119.153 260.504 119.487 260.717 119.7C260.944 119.913 261.284 120.02 261.737 120.02H266.717L266.797 121.38C265.93 121.447 265.044 121.487 264.137 121.5C263.244 121.513 262.35 121.52 261.457 121.52C260.444 121.52 259.724 121.273 259.297 120.78C258.87 120.287 258.657 119.667 258.657 118.92V107.7H260.397ZM279.39 107.7L275.37 113.42C275.25 113.593 275.13 113.747 275.01 113.88C274.904 114 274.77 114.14 274.61 114.3V114.34C274.784 114.5 274.944 114.66 275.09 114.82C275.237 114.98 275.364 115.14 275.47 115.3L279.67 121.5H277.69L272.79 114.28L277.47 107.7H279.39ZM271.71 107.7V112.02C271.71 112.42 271.69 112.8 271.65 113.16C271.61 113.52 271.55 113.893 271.47 114.28C271.537 114.653 271.59 115.027 271.63 115.4C271.684 115.773 271.71 116.133 271.71 116.48V121.5H269.97V107.7H271.71ZM273.75 113.6V115.02H271.09V113.6H273.75ZM304.391 107.7L301.591 120.98C301.551 121.127 301.471 121.253 301.351 121.36C301.231 121.453 301.077 121.5 300.891 121.5H298.891C298.717 121.5 298.564 121.453 298.431 121.36C298.311 121.253 298.237 121.12 298.211 120.96L296.051 110.58C295.997 110.313 295.944 110.053 295.891 109.8C295.837 109.533 295.784 109.273 295.731 109.02H295.311C295.257 109.273 295.204 109.533 295.151 109.8C295.111 110.067 295.064 110.327 295.011 110.58L292.871 120.96C292.831 121.12 292.744 121.253 292.611 121.36C292.491 121.453 292.344 121.5 292.171 121.5H290.151C289.977 121.5 289.824 121.453 289.691 121.36C289.571 121.253 289.497 121.127 289.471 120.98L286.671 107.7H288.531L290.691 118.46C290.744 118.713 290.791 118.987 290.831 119.28C290.871 119.56 290.917 119.853 290.971 120.16H291.431C291.484 119.853 291.537 119.56 291.591 119.28C291.644 119 291.697 118.727 291.751 118.46L293.891 108.28C293.917 108.107 293.991 107.967 294.111 107.86C294.244 107.753 294.397 107.7 294.571 107.7H296.491C296.664 107.7 296.811 107.753 296.931 107.86C297.051 107.967 297.131 108.107 297.171 108.28L299.311 118.46C299.377 118.753 299.431 119.04 299.471 119.32C299.524 119.6 299.564 119.88 299.591 120.16H300.091C300.131 119.88 300.171 119.6 300.211 119.32C300.251 119.027 300.297 118.747 300.351 118.48L302.531 107.7H304.391ZM309.516 107.7V121.5H307.756V107.7H309.516ZM318.93 107.7V121.5H317.17V107.7H318.93ZM323.39 107.7V109.26H312.73V107.7H323.39ZM328.371 107.7V121.5H326.611V107.7H328.371ZM334.951 113.36V114.88H328.211V113.36H334.951ZM336.491 107.7V121.5H334.731V107.7H336.491ZM359.464 107.7C359.944 107.7 360.184 107.947 360.184 108.44L360.764 121.5H359.004L358.504 109.16H358.084L355.004 119.34C354.897 119.74 354.644 119.94 354.244 119.94H352.664C352.25 119.94 351.984 119.74 351.864 119.34L348.784 109.16H348.384L347.904 121.5H346.144L346.684 108.44C346.71 107.947 346.957 107.7 347.424 107.7H349.424C349.797 107.7 350.044 107.9 350.164 108.3L352.744 116.72C352.85 117.027 352.937 117.333 353.004 117.64C353.084 117.947 353.17 118.26 353.264 118.58H353.624C353.717 118.26 353.804 117.947 353.884 117.64C353.964 117.333 354.05 117.013 354.144 116.68L356.724 108.3C356.83 107.9 357.084 107.7 357.484 107.7H359.464ZM367.503 107.68C368.169 107.68 368.836 107.68 369.503 107.68C370.183 107.68 370.849 107.693 371.503 107.72C372.169 107.733 372.809 107.76 373.423 107.8L373.343 109.18H367.803C367.389 109.18 367.083 109.287 366.883 109.5C366.696 109.7 366.603 110.033 366.603 110.5V118.7C366.603 119.167 366.696 119.507 366.883 119.72C367.083 119.933 367.389 120.04 367.803 120.04H373.343L373.423 121.4C372.809 121.44 372.169 121.467 371.503 121.48C370.849 121.493 370.183 121.5 369.503 121.5C368.836 121.513 368.169 121.52 367.503 121.52C366.689 121.52 366.043 121.307 365.563 120.88C365.096 120.44 364.856 119.853 364.843 119.12V110.08C364.856 109.333 365.096 108.747 365.563 108.32C366.043 107.893 366.689 107.68 367.503 107.68ZM365.203 113.5H372.563V114.92H365.203V113.5Z" fill="#F0F0F0"/>
</svg>
