<svg width="28" height="52" viewBox="0 0 28 52" fill="none" xmlns="http://www.w3.org/2000/svg">
<path d="M1.22754 4.13595L22.5425 26.0022L1.22754 47.8684C0.845939 48.2591 0.632304 48.7836 0.632304 49.3297C0.632304 49.8758 0.845939 50.4003 1.22754 50.7909C1.41288 50.9801 1.6341 51.1304 1.87826 51.233C2.12241 51.3356 2.38458 51.3884 2.64941 51.3884C2.91424 51.3884 3.17641 51.3356 3.42056 51.233C3.66472 51.1304 3.88594 50.9801 4.07129 50.7909L26.7513 27.5291C27.1495 27.1206 27.3723 26.5727 27.3723 26.0022C27.3723 25.4317 27.1495 24.8838 26.7513 24.4753L4.07566 1.21345C3.89018 1.02295 3.66841 0.871532 3.42345 0.768143C3.17849 0.664757 2.9153 0.611492 2.64941 0.611492C2.38353 0.611492 2.12033 0.664757 1.87537 0.768143C1.63041 0.871532 1.40864 1.02295 1.22316 1.21345C0.841562 1.60413 0.62793 2.12858 0.62793 2.6747C0.62793 3.22082 0.841562 3.74527 1.22316 4.13595H1.22754Z" fill="#F0F0F0"/>
</svg>
